<svg width="505" height="223" viewBox="0 0 505 223" fill="none" xmlns="http://www.w3.org/2000/svg">
<path d="M184.092 118.727L176.893 96.5538C176.896 96.5638 176.897 96.5742 176.9 96.5841C176.897 96.5726 176.895 96.561 176.892 96.5494C176.891 96.5486 176.891 96.5482 176.891 96.5474C176.891 96.547 176.891 96.5466 176.891 96.5466L162.6 52.5442C161.818 50.2261 159.667 48.6702 157.201 48.6898C154.727 48.7026 152.635 50.228 151.87 52.5781L138.305 94.345H95.5012L81.9105 52.5757C81.1462 50.228 79.054 48.7026 76.5809 48.6898C76.5709 48.6898 76.5613 48.6898 76.551 48.6898C74.1157 48.6898 71.9605 50.236 71.1703 52.5801L56.9182 96.543L56.9162 96.5486C56.9162 96.549 56.9162 96.5494 56.9162 96.5498C56.9126 96.561 56.911 96.5722 56.9074 96.5833C56.9106 96.5734 56.9118 96.563 56.915 96.553L49.6894 118.728C48.6025 122.076 49.782 125.714 52.6253 127.782L115.014 173.115C115.023 173.122 115.033 173.126 115.043 173.133C115.069 173.152 115.095 173.172 115.122 173.19C115.097 173.172 115.073 173.154 115.048 173.136C115.048 173.136 115.048 173.136 115.047 173.136C115.051 173.139 115.056 173.141 115.061 173.144C115.064 173.146 115.068 173.148 115.071 173.15C115.072 173.151 115.072 173.151 115.073 173.151C115.17 173.218 115.27 173.28 115.373 173.336C115.388 173.344 115.4 173.354 115.415 173.362C115.415 173.362 115.415 173.362 115.416 173.362C115.424 173.366 115.432 173.372 115.441 173.376C115.448 173.38 115.455 173.382 115.462 173.385C115.466 173.387 115.471 173.389 115.476 173.391C115.488 173.396 115.501 173.4 115.512 173.406C115.566 173.432 115.623 173.453 115.679 173.476C115.732 173.497 115.782 173.522 115.836 173.541C115.838 173.542 115.84 173.543 115.842 173.544C115.851 173.547 115.859 173.551 115.868 173.555C115.88 173.559 115.89 173.563 115.901 173.567C115.906 173.568 115.91 173.569 115.915 173.57C115.929 173.574 115.944 173.576 115.958 173.58C115.963 173.582 115.969 173.583 115.974 173.584C116.049 173.607 116.127 173.623 116.205 173.64C116.235 173.647 116.264 173.657 116.295 173.662C116.299 173.663 116.303 173.665 116.308 173.666C116.318 173.668 116.327 173.671 116.337 173.673C116.354 173.676 116.37 173.681 116.387 173.683C116.4 173.685 116.413 173.684 116.426 173.686C116.429 173.687 116.431 173.686 116.433 173.687C116.434 173.687 116.434 173.687 116.435 173.687C116.582 173.708 116.732 173.723 116.884 173.723C116.884 173.723 116.885 173.723 116.886 173.723C116.887 173.723 116.887 173.723 116.887 173.723H116.888C116.888 173.723 116.888 173.723 116.889 173.723C117.041 173.723 117.19 173.708 117.338 173.687C117.338 173.687 117.339 173.687 117.339 173.687C117.342 173.686 117.344 173.687 117.347 173.686C117.36 173.684 117.374 173.685 117.387 173.683C117.404 173.68 117.42 173.676 117.436 173.673C117.446 173.671 117.456 173.668 117.466 173.666C117.47 173.665 117.474 173.663 117.478 173.662C117.509 173.656 117.539 173.647 117.57 173.64C117.647 173.623 117.723 173.607 117.798 173.585C117.803 173.583 117.808 173.583 117.813 173.581C117.828 173.577 117.843 173.575 117.858 173.57C117.862 173.569 117.867 173.568 117.872 173.567C117.883 173.563 117.894 173.559 117.906 173.555C117.914 173.551 117.922 173.547 117.931 173.544C117.933 173.543 117.935 173.542 117.938 173.541C117.994 173.521 118.048 173.495 118.103 173.472C118.155 173.451 118.207 173.431 118.258 173.407C118.27 173.401 118.283 173.398 118.295 173.392C118.3 173.39 118.306 173.388 118.31 173.386C118.317 173.382 118.324 173.38 118.331 173.377C118.34 173.372 118.349 173.366 118.358 173.362C118.358 173.362 118.358 173.362 118.358 173.362C118.373 173.354 118.386 173.343 118.401 173.335C118.504 173.279 118.604 173.218 118.7 173.152C118.707 173.147 118.716 173.143 118.724 173.137C118.726 173.135 118.728 173.135 118.73 173.133C118.74 173.126 118.75 173.122 118.76 173.115L181.157 127.78C183.999 125.713 185.178 122.075 184.092 118.727ZM157.24 56.6667L169.477 94.345H145.003L157.24 56.6667ZM167.334 100.716L162.341 107.115L125.512 154.307L142.933 100.716H167.334V100.716ZM113.857 171.523C113.857 171.522 113.857 171.522 113.857 171.523C113.86 171.532 113.866 171.541 113.869 171.551C113.866 171.541 113.86 171.532 113.857 171.523ZM108.27 154.31L66.4705 100.716H90.8733L108.27 154.31ZM76.5422 56.6663L88.8018 94.345H64.3273L76.5422 56.6663ZM56.3709 122.628C55.7662 122.188 55.5157 121.411 55.7475 120.698L61.1186 104.214L100.475 154.675L56.3709 122.628ZM114.904 173.031C114.892 173.021 114.88 173.011 114.868 173C114.866 172.998 114.863 172.995 114.86 172.993C114.836 172.973 114.813 172.953 114.79 172.932C114.744 172.893 114.7 172.853 114.657 172.81C114.661 172.813 114.665 172.816 114.668 172.819C114.673 172.824 114.678 172.827 114.683 172.832C114.774 172.919 114.87 173.001 114.971 173.077C114.972 173.078 114.973 173.079 114.974 173.08C114.979 173.084 114.983 173.088 114.988 173.092C114.96 173.072 114.931 173.052 114.904 173.031ZM116.888 160.227L106.652 128.691L97.5707 100.716H136.234L116.888 160.227ZM118.983 172.932C118.959 172.953 118.936 172.973 118.912 172.993C118.909 172.996 118.906 172.999 118.904 173.001C118.891 173.011 118.88 173.022 118.868 173.032C118.841 173.053 118.813 173.072 118.785 173.092C118.79 173.089 118.794 173.084 118.799 173.081C118.8 173.08 118.801 173.079 118.801 173.078C118.902 173.003 118.998 172.921 119.088 172.834C119.092 172.83 119.096 172.827 119.1 172.824C119.105 172.82 119.11 172.816 119.114 172.812C119.072 172.853 119.028 172.893 118.983 172.932ZM177.411 122.627L133.314 154.665L172.683 104.218L178.032 120.695C178.265 121.411 178.015 122.188 177.411 122.627Z" fill="white"/>
<path d="M334.951 79.0641H326.256L326.295 143.89H361.518V135.871H334.991L334.951 79.0641Z" fill="white"/>
<path d="M395.036 132.514C392.842 134.788 389.212 137.062 384.266 137.062C377.644 137.062 374.971 133.791 374.971 129.522C374.971 123.099 379.439 120.028 388.933 120.028C390.728 120.028 393.6 120.227 395.076 120.506V132.514H395.036V132.514ZM386.021 93.2197C379 93.2197 372.538 95.6931 367.512 99.8818L370.584 105.227C374.134 103.153 378.482 101.079 384.744 101.079C391.885 101.079 395.036 104.749 395.036 110.892V114.044C393.64 113.764 390.768 113.565 389.013 113.565C373.775 113.565 366.036 118.911 366.036 130.081C366.036 140.094 372.179 145.12 381.473 145.12C387.736 145.12 393.759 142.248 395.834 137.58L397.429 143.923H403.572V110.733C403.532 100.241 398.985 93.2197 386.021 93.2197Z" fill="white"/>
<path d="M431.63 137.359C428.359 137.359 425.487 136.96 423.333 135.963V109.115V106.003C426.285 103.53 429.955 101.735 434.622 101.735C443.038 101.735 446.27 107.679 446.27 117.293C446.27 130.936 441.044 137.359 431.63 137.359ZM435.3 93.2375C427.521 93.2375 423.333 98.5432 423.333 98.5432V90.1658L423.293 79.0756H419.384H414.797L414.837 142.305C419.105 144.101 424.929 145.058 431.271 145.058C447.506 145.058 455.324 134.686 455.324 116.774C455.285 102.612 448.065 93.2375 435.3 93.2375Z" fill="white"/>
<path d="M240.271 86.0975C247.969 86.0975 252.956 88.6506 256.187 91.2436L259.936 84.7411C254.87 80.2731 248.009 77.8796 240.67 77.8796C222.161 77.8796 209.197 89.1692 209.197 111.948C209.197 135.804 223.198 145.099 239.194 145.099C247.212 145.099 254.033 143.224 258.5 141.349L258.301 115.857V112.865V107.839H234.567V115.857H249.725L249.924 135.205C247.93 136.203 244.499 137.001 239.832 137.001C226.988 137.001 218.371 128.902 218.371 111.868C218.332 94.5148 227.227 86.0975 240.271 86.0975Z" fill="white"/>
<path d="M301.512 79.0551H293.015L293.055 89.9458V94.4138V97.0068V101.555V127.485V127.565C293.055 138.056 297.603 145.077 310.567 145.077C312.362 145.077 314.117 144.918 315.792 144.599V136.979C314.556 137.179 313.239 137.258 311.843 137.258C304.703 137.258 301.552 133.588 301.552 127.445V101.515H315.792V94.4138H301.552L301.512 79.0551Z" fill="white"/>
<path d="M271.408 143.89H279.904V94.4228H271.408V143.89Z" fill="white"/>
<path d="M271.408 87.6011H279.904V79.104H271.408V87.6011Z" fill="white"/>
</svg>
